<svg xmlns="http://www.w3.org/2000/svg" viewBox="0 0 512 512">
  <!-- Warm cream background -->
  <circle cx="256" cy="256" r="256" fill="#FDF6EC"/>

  <!-- ===== EARS (drawn first so head overlaps at top) ===== -->
  <!-- Left ear (long, silky, floppy) -->
  <path d="M214 148 C200 145 168 165 162 220 C156 275 155 330 162 375 C167 405 180 420 198 418 C216 416 228 400 232 372 C238 335 240 275 238 218 C237 178 226 151 214 148 Z" fill="#1C1C1C"/>
  <!-- Left ear inner highlight (silky texture) -->
  <path d="M212 158 C202 156 177 173 172 222 C167 272 167 325 174 365 C179 390 189 402 202 401 C212 400 220 390 224 368 C229 336 230 280 229 226 C228 190 220 160 212 158 Z" fill="#2a2a2a"/>

  <!-- Right ear -->
  <path d="M298 148 C312 145 344 165 350 220 C356 275 357 330 350 375 C345 405 332 420 314 418 C296 416 284 400 280 372 C274 335 272 275 274 218 C275 178 286 151 298 148 Z" fill="#1C1C1C"/>
  <!-- Right ear inner highlight -->
  <path d="M300 158 C310 156 335 173 340 222 C345 272 345 325 338 365 C333 390 323 402 310 401 C300 400 292 390 288 368 C283 336 282 280 283 226 C284 190 292 160 300 158 Z" fill="#2a2a2a"/>

  <!-- ===== BODY (sitting) ===== -->
  <!-- Main body (black) -->
  <ellipse cx="256" cy="395" rx="108" ry="95" fill="#1C1C1C"/>
  <!-- Chest/belly tan marking -->
  <ellipse cx="256" cy="378" rx="70" ry="85" fill="#C4843F"/>
  <!-- Chest center lighter fur -->
  <ellipse cx="256" cy="390" rx="46" ry="62" fill="#D9974E" opacity="0.6"/>

  <!-- ===== FRONT LEGS ===== -->
  <!-- Left leg (black) -->
  <path d="M208 415 C203 428 202 450 205 465 C207 474 216 480 226 479 C236 478 242 471 243 461 C245 448 244 427 240 414 Z" fill="#1C1C1C"/>
  <!-- Right leg (black) -->
  <path d="M304 415 C309 428 310 450 307 465 C305 474 296 480 286 479 C276 478 270 471 269 461 C267 448 268 427 272 414 Z" fill="#1C1C1C"/>
  <!-- Paws (tan) -->
  <ellipse cx="224" cy="471" rx="26" ry="14" fill="#C4843F"/>
  <ellipse cx="288" cy="471" rx="26" ry="14" fill="#C4843F"/>
  <!-- Paw toe lines -->
  <line x1="216" y1="466" x2="214" y2="478" stroke="#A36830" stroke-width="1.5" stroke-linecap="round"/>
  <line x1="224" y1="464" x2="224" y2="478" stroke="#A36830" stroke-width="1.5" stroke-linecap="round"/>
  <line x1="232" y1="466" x2="234" y2="478" stroke="#A36830" stroke-width="1.5" stroke-linecap="round"/>
  <line x1="280" y1="466" x2="278" y2="478" stroke="#A36830" stroke-width="1.5" stroke-linecap="round"/>
  <line x1="288" y1="464" x2="288" y2="478" stroke="#A36830" stroke-width="1.5" stroke-linecap="round"/>
  <line x1="296" y1="466" x2="298" y2="478" stroke="#A36830" stroke-width="1.5" stroke-linecap="round"/>

  <!-- ===== HEAD ===== -->
  <circle cx="256" cy="192" r="88" fill="#1C1C1C"/>

  <!-- ===== FACE TAN MARKINGS ===== -->
  <!-- Left eyebrow spot -->
  <ellipse cx="224" cy="160" rx="17" ry="10" fill="#C4843F"/>
  <!-- Right eyebrow spot -->
  <ellipse cx="288" cy="160" rx="17" ry="10" fill="#C4843F"/>
  <!-- Muzzle (main tan) -->
  <ellipse cx="256" cy="213" rx="54" ry="44" fill="#C4843F"/>
  <!-- Muzzle inner (lighter) -->
  <ellipse cx="256" cy="218" rx="38" ry="31" fill="#E0A870"/>
  <!-- Left cheek tan -->
  <ellipse cx="213" cy="205" rx="16" ry="14" fill="#C4843F"/>
  <!-- Right cheek tan -->
  <ellipse cx="299" cy="205" rx="16" ry="14" fill="#C4843F"/>

  <!-- ===== EYES ===== -->
  <!-- Left eye white -->
  <circle cx="228" cy="184" r="22" fill="#FFFFFF"/>
  <!-- Left iris (warm brown) -->
  <circle cx="229" cy="185" r="15" fill="#6B4226"/>
  <!-- Left pupil -->
  <circle cx="230" cy="186" r="9" fill="#1a0800"/>
  <!-- Left shine -->
  <circle cx="235" cy="180" r="4.5" fill="#FFFFFF"/>
  <circle cx="225" cy="191" r="2" fill="#FFFFFF" opacity="0.5"/>

  <!-- Right eye white -->
  <circle cx="284" cy="184" r="22" fill="#FFFFFF"/>
  <!-- Right iris -->
  <circle cx="285" cy="185" r="15" fill="#6B4226"/>
  <!-- Right pupil -->
  <circle cx="286" cy="186" r="9" fill="#1a0800"/>
  <!-- Right shine -->
  <circle cx="291" cy="180" r="4.5" fill="#FFFFFF"/>
  <circle cx="281" cy="191" r="2" fill="#FFFFFF" opacity="0.5"/>

  <!-- ===== NOSE ===== -->
  <ellipse cx="256" cy="207" rx="19" ry="14" fill="#1a0800"/>
  <!-- Nose bridge line -->
  <line x1="256" y1="193" x2="256" y2="207" stroke="#1a0800" stroke-width="3"/>
  <!-- Nose shine -->
  <ellipse cx="251" cy="203" rx="5" ry="3.5" fill="#3a2010" opacity="0.7"/>

  <!-- ===== MOUTH ===== -->
  <path d="M236 226 Q256 240 276 226" fill="none" stroke="#1a0800" stroke-width="4" stroke-linecap="round"/>

  <!-- Happy tongue (lolling out) -->
  <ellipse cx="256" cy="244" rx="16" ry="13" fill="#FF8FA3"/>
  <line x1="256" y1="231" x2="256" y2="256" stroke="#E87090" stroke-width="2" stroke-linecap="round"/>

  <!-- ===== SMALL TAIL (docked, wagging to the right) ===== -->
  <ellipse cx="353" cy="365" rx="22" ry="12" fill="#1C1C1C" transform="rotate(32 353 365)"/>

  <!-- Ground shadow -->
  <ellipse cx="256" cy="485" rx="115" ry="12" fill="#D4C4A8" opacity="0.5"/>
</svg>
